<svg xmlns="http://www.w3.org/2000/svg" xmlns:xlink="http://www.w3.org/1999/xlink" width="1080" zoomAndPan="magnify" viewBox="0 0 810 352.49999" height="470" preserveAspectRatio="xMidYMid meet" version="1.0"><defs><g/><clipPath id="ca508e2a4e"><path d="M 193 213 L 268.542969 213 L 268.542969 323 L 193 323 Z M 193 213 " clip-rule="nonzero"/></clipPath></defs><path fill="#fad209" d="M 309.570312 269.105469 L 257.410156 216.414062 C 247.335938 206.234375 226.644531 225.0625 238.78125 236.902344 L 271.78125 269.105469 L 237.71875 300.773438 C 227.34375 310.414062 246.558594 330.203125 256.878906 320.199219 Z M 309.570312 269.105469 " fill-opacity="1" fill-rule="nonzero"/><g clip-path="url(#ca508e2a4e)"><path fill="#5addbd" d="M 268.101562 269.105469 L 215.941406 216.414062 C 205.867188 206.234375 185.175781 225.0625 197.3125 236.902344 L 230.3125 269.105469 L 196.25 300.773438 C 185.878906 310.414062 205.089844 330.203125 215.410156 320.199219 Z M 268.101562 269.105469 " fill-opacity="1" fill-rule="nonzero"/></g><path fill="#196d9c" d="M 226.632812 269.105469 L 174.472656 216.414062 C 164.398438 206.234375 143.710938 225.0625 155.84375 236.902344 L 188.84375 269.105469 L 154.78125 300.773438 C 144.410156 310.414062 163.621094 330.203125 173.941406 320.199219 Z M 226.632812 269.105469 " fill-opacity="1" fill-rule="nonzero"/><g fill="#196d9c" fill-opacity="1"><g transform="translate(-4.989819, 153.78458)"><g><path d="M 15.125 -119.28125 L 48.953125 -119.28125 L 48.953125 -102.140625 C 53.109375 -107.773438 58.113281 -112.410156 63.96875 -116.046875 C 69.832031 -119.679688 77.21875 -121.5 86.125 -121.5 C 93.09375 -121.5 99.835938 -120.160156 106.359375 -117.484375 C 112.890625 -114.816406 118.675781 -110.847656 123.71875 -105.578125 C 128.769531 -100.316406 132.816406 -93.863281 135.859375 -86.21875 C 138.898438 -78.582031 140.421875 -69.796875 140.421875 -59.859375 L 140.421875 -59.421875 C 140.421875 -49.472656 138.898438 -40.675781 135.859375 -33.03125 C 132.816406 -25.394531 128.8125 -18.941406 123.84375 -13.671875 C 118.875 -8.410156 113.125 -4.445312 106.59375 -1.78125 C 100.0625 0.882812 93.238281 2.21875 86.125 2.21875 C 77.070312 2.21875 69.613281 0.441406 63.75 -3.109375 C 57.894531 -6.671875 52.960938 -10.828125 48.953125 -15.578125 L 48.953125 35.609375 L 15.125 35.609375 Z M 77.4375 -26.484375 C 81.445312 -26.484375 85.191406 -27.257812 88.671875 -28.8125 C 92.160156 -30.375 95.238281 -32.597656 97.90625 -35.484375 C 100.582031 -38.378906 102.695312 -41.828125 104.25 -45.828125 C 105.8125 -49.835938 106.59375 -54.367188 106.59375 -59.421875 L 106.59375 -59.859375 C 106.59375 -64.753906 105.8125 -69.238281 104.25 -73.3125 C 102.695312 -77.394531 100.582031 -80.882812 97.90625 -83.78125 C 95.238281 -86.675781 92.160156 -88.898438 88.671875 -90.453125 C 85.191406 -92.015625 81.445312 -92.796875 77.4375 -92.796875 C 73.4375 -92.796875 69.691406 -92.015625 66.203125 -90.453125 C 62.710938 -88.898438 59.671875 -86.675781 57.078125 -83.78125 C 54.484375 -80.882812 52.40625 -77.394531 50.84375 -73.3125 C 49.289062 -69.238281 48.515625 -64.753906 48.515625 -59.859375 L 48.515625 -59.421875 C 48.515625 -54.523438 49.289062 -50.035156 50.84375 -45.953125 C 52.40625 -41.867188 54.484375 -38.378906 57.078125 -35.484375 C 59.671875 -32.597656 62.710938 -30.375 66.203125 -28.8125 C 69.691406 -27.257812 73.4375 -26.484375 77.4375 -26.484375 Z M 77.4375 -26.484375 "/></g></g></g><g fill="#196d9c" fill-opacity="1"><g transform="translate(134.086163, 153.78458)"><g><path d="M 73.65625 2.671875 C 64.457031 2.671875 55.925781 1.078125 48.0625 -2.109375 C 40.195312 -5.304688 33.410156 -9.6875 27.703125 -15.25 C 21.992188 -20.8125 17.503906 -27.335938 14.234375 -34.828125 C 10.972656 -42.316406 9.34375 -50.363281 9.34375 -58.96875 L 9.34375 -59.421875 C 9.34375 -68.023438 10.972656 -76.070312 14.234375 -83.5625 C 17.503906 -91.050781 22.03125 -97.613281 27.8125 -103.25 C 33.601562 -108.882812 40.425781 -113.332031 48.28125 -116.59375 C 56.144531 -119.863281 64.753906 -121.5 74.109375 -121.5 C 83.304688 -121.5 91.832031 -119.90625 99.6875 -116.71875 C 107.550781 -113.53125 114.335938 -109.15625 120.046875 -103.59375 C 125.765625 -98.03125 130.253906 -91.5 133.515625 -84 C 136.785156 -76.507812 138.421875 -68.460938 138.421875 -59.859375 L 138.421875 -59.421875 C 138.421875 -50.816406 136.785156 -42.765625 133.515625 -35.265625 C 130.253906 -27.773438 125.726562 -21.210938 119.9375 -15.578125 C 114.15625 -9.941406 107.332031 -5.488281 99.46875 -2.21875 C 91.601562 1.039062 83 2.671875 73.65625 2.671875 Z M 74.109375 -26.484375 C 79.003906 -26.484375 83.34375 -27.332031 87.125 -29.03125 C 90.90625 -30.738281 94.128906 -33.078125 96.796875 -36.046875 C 99.472656 -39.015625 101.515625 -42.460938 102.921875 -46.390625 C 104.328125 -50.328125 105.03125 -54.519531 105.03125 -58.96875 L 105.03125 -59.421875 C 105.03125 -63.867188 104.285156 -68.054688 102.796875 -71.984375 C 101.316406 -75.921875 99.164062 -79.410156 96.34375 -82.453125 C 93.53125 -85.492188 90.195312 -87.898438 86.34375 -89.671875 C 82.488281 -91.453125 78.257812 -92.34375 73.65625 -92.34375 C 68.757812 -92.34375 64.421875 -91.488281 60.640625 -89.78125 C 56.859375 -88.082031 53.628906 -85.75 50.953125 -82.78125 C 48.285156 -79.8125 46.242188 -76.359375 44.828125 -72.421875 C 43.421875 -68.492188 42.71875 -64.304688 42.71875 -59.859375 L 42.71875 -59.421875 C 42.71875 -54.960938 43.457031 -50.769531 44.9375 -46.84375 C 46.425781 -42.914062 48.582031 -39.429688 51.40625 -36.390625 C 54.226562 -33.347656 57.53125 -30.9375 61.3125 -29.15625 C 65.09375 -27.375 69.359375 -26.484375 74.109375 -26.484375 Z M 74.109375 -26.484375 "/></g></g></g><g fill="#196d9c" fill-opacity="1"><g transform="translate(270.714382, 153.78458)"><g><path d="M 5.34375 -119.28125 L 39.609375 -119.28125 L 58.75 -46.953125 L 81.21875 -119.71875 L 110.375 -119.71875 L 133.078125 -46.734375 L 152.65625 -119.28125 L 186.265625 -119.28125 L 149.09375 0.890625 L 118.609375 0.890625 L 95.6875 -72.328125 L 72.328125 0.890625 L 42.0625 0.890625 Z M 5.34375 -119.28125 "/></g></g></g><g fill="#196d9c" fill-opacity="1"><g transform="translate(451.179631, 153.78458)"><g><path d="M 71.65625 2.671875 C 62.75 2.671875 54.472656 1.1875 46.828125 -1.78125 C 39.191406 -4.75 32.59375 -8.976562 27.03125 -14.46875 C 21.46875 -19.957031 17.128906 -26.445312 14.015625 -33.9375 C 10.898438 -41.425781 9.34375 -49.769531 9.34375 -58.96875 L 9.34375 -59.421875 C 9.34375 -67.867188 10.789062 -75.875 13.6875 -83.4375 C 16.582031 -91.007812 20.625 -97.613281 25.8125 -103.25 C 31.007812 -108.882812 37.203125 -113.332031 44.390625 -116.59375 C 51.585938 -119.863281 59.5625 -121.5 68.3125 -121.5 C 78.257812 -121.5 86.863281 -119.71875 94.125 -116.15625 C 101.394531 -112.601562 107.441406 -107.820312 112.265625 -101.8125 C 117.085938 -95.800781 120.644531 -88.898438 122.9375 -81.109375 C 125.238281 -73.328125 126.390625 -65.207031 126.390625 -56.75 C 126.390625 -55.414062 126.351562 -54.003906 126.28125 -52.515625 C 126.207031 -51.035156 126.097656 -49.476562 125.953125 -47.84375 L 42.953125 -47.84375 C 44.578125 -40.125 47.945312 -34.300781 53.0625 -30.375 C 58.1875 -26.445312 64.53125 -24.484375 72.09375 -24.484375 C 77.738281 -24.484375 82.785156 -25.445312 87.234375 -27.375 C 91.679688 -29.300781 96.28125 -32.414062 101.03125 -36.71875 L 120.390625 -19.578125 C 114.753906 -12.609375 107.929688 -7.15625 99.921875 -3.21875 C 91.910156 0.707031 82.488281 2.671875 71.65625 2.671875 Z M 93.46875 -68.984375 C 92.425781 -76.546875 89.753906 -82.664062 85.453125 -87.34375 C 81.148438 -92.019531 75.4375 -94.359375 68.3125 -94.359375 C 61.195312 -94.359375 55.445312 -92.054688 51.0625 -87.453125 C 46.6875 -82.859375 43.832031 -76.703125 42.5 -68.984375 Z M 93.46875 -68.984375 "/></g></g></g><g fill="#196d9c" fill-opacity="1"><g transform="translate(576.459207, 153.78458)"><g><path d="M 15.125 -119.28125 L 48.953125 -119.28125 L 48.953125 -95.25 C 52.367188 -103.40625 57.039062 -109.929688 62.96875 -114.828125 C 68.90625 -119.722656 76.921875 -121.945312 87.015625 -121.5 L 87.015625 -86.125 L 85.234375 -86.125 C 73.953125 -86.125 65.082031 -82.707031 58.625 -75.875 C 52.175781 -69.050781 48.953125 -58.445312 48.953125 -44.0625 L 48.953125 0 L 15.125 0 Z M 15.125 -119.28125 "/></g></g></g><g fill="#5addbd" fill-opacity="1"><g transform="translate(296.617213, 322.80467)"><g><path d="M 56.96875 2.21875 C 48.507812 2.21875 39.863281 0.773438 31.03125 -2.109375 C 22.207031 -5.003906 13.789062 -9.566406 5.78125 -15.796875 L 20.25 -38.046875 C 26.78125 -33.304688 33.269531 -29.75 39.71875 -27.375 C 46.175781 -25 52.222656 -23.8125 57.859375 -23.8125 C 62.753906 -23.8125 66.347656 -24.625 68.640625 -26.25 C 70.941406 -27.882812 72.09375 -30.039062 72.09375 -32.71875 L 72.09375 -33.15625 C 72.09375 -34.9375 71.425781 -36.492188 70.09375 -37.828125 C 68.757812 -39.160156 66.941406 -40.304688 64.640625 -41.265625 C 62.347656 -42.234375 59.71875 -43.160156 56.75 -44.046875 C 53.78125 -44.941406 50.664062 -45.910156 47.40625 -46.953125 C 43.25 -48.140625 39.054688 -49.585938 34.828125 -51.296875 C 30.597656 -53.003906 26.773438 -55.226562 23.359375 -57.96875 C 19.953125 -60.71875 17.171875 -64.09375 15.015625 -68.09375 C 12.867188 -72.101562 11.796875 -77 11.796875 -82.78125 L 11.796875 -83.234375 C 11.796875 -89.304688 12.941406 -94.679688 15.234375 -99.359375 C 17.535156 -104.035156 20.648438 -108.003906 24.578125 -111.265625 C 28.515625 -114.523438 33.113281 -116.972656 38.375 -118.609375 C 43.644531 -120.242188 49.320312 -121.0625 55.40625 -121.0625 C 62.976562 -121.0625 70.65625 -119.835938 78.4375 -117.390625 C 86.226562 -114.941406 93.390625 -111.566406 99.921875 -107.265625 L 87.015625 -83.890625 C 81.078125 -87.304688 75.289062 -90.015625 69.65625 -92.015625 C 64.019531 -94.015625 59.050781 -95.015625 54.75 -95.015625 C 50.59375 -95.015625 47.472656 -94.234375 45.390625 -92.671875 C 43.316406 -91.117188 42.28125 -89.15625 42.28125 -86.78125 L 42.28125 -86.34375 C 42.28125 -84.707031 42.945312 -83.257812 44.28125 -82 C 45.613281 -80.738281 47.394531 -79.550781 49.625 -78.4375 C 51.851562 -77.320312 54.410156 -76.242188 57.296875 -75.203125 C 60.191406 -74.171875 63.269531 -73.132812 66.53125 -72.09375 C 70.6875 -70.757812 74.914062 -69.164062 79.21875 -67.3125 C 83.519531 -65.457031 87.375 -63.191406 90.78125 -60.515625 C 94.195312 -57.847656 97.019531 -54.585938 99.25 -50.734375 C 101.476562 -46.878906 102.59375 -42.207031 102.59375 -36.71875 L 102.59375 -36.265625 C 102.59375 -29.597656 101.441406 -23.851562 99.140625 -19.03125 C 96.835938 -14.207031 93.609375 -10.238281 89.453125 -7.125 C 85.304688 -4.007812 80.445312 -1.671875 74.875 -0.109375 C 69.3125 1.441406 63.34375 2.21875 56.96875 2.21875 Z M 56.96875 2.21875 "/></g></g></g><g fill="#5addbd" fill-opacity="1"><g transform="translate(397.196724, 322.80467)"><g><path d="M 48.953125 2.21875 C 43.316406 2.21875 38.015625 1.441406 33.046875 -0.109375 C 28.078125 -1.671875 23.738281 -4.007812 20.03125 -7.125 C 16.320312 -10.238281 13.390625 -14.054688 11.234375 -18.578125 C 9.085938 -23.109375 8.015625 -28.335938 8.015625 -34.265625 L 8.015625 -34.71875 C 8.015625 -41.238281 9.195312 -46.875 11.5625 -51.625 C 13.9375 -56.375 17.238281 -60.304688 21.46875 -63.421875 C 25.695312 -66.535156 30.738281 -68.867188 36.59375 -70.421875 C 42.457031 -71.984375 48.953125 -72.765625 56.078125 -72.765625 C 62.160156 -72.765625 67.460938 -72.316406 71.984375 -71.421875 C 76.515625 -70.535156 80.929688 -69.351562 85.234375 -67.875 L 85.234375 -69.875 C 85.234375 -77 83.082031 -82.414062 78.78125 -86.125 C 74.476562 -89.832031 68.097656 -91.6875 59.640625 -91.6875 C 53.109375 -91.6875 47.359375 -91.128906 42.390625 -90.015625 C 37.421875 -88.898438 32.191406 -87.304688 26.703125 -85.234375 L 18.25 -111.046875 C 24.769531 -113.859375 31.59375 -116.15625 38.71875 -117.9375 C 45.84375 -119.71875 54.445312 -120.609375 64.53125 -120.609375 C 73.875 -120.609375 81.847656 -119.457031 88.453125 -117.15625 C 95.054688 -114.863281 100.507812 -111.566406 104.8125 -107.265625 C 109.257812 -102.804688 112.519531 -97.347656 114.59375 -90.890625 C 116.675781 -84.441406 117.71875 -77.210938 117.71875 -69.203125 L 117.71875 0 L 85 0 L 85 -12.90625 C 80.851562 -8.3125 75.882812 -4.640625 70.09375 -1.890625 C 64.3125 0.847656 57.265625 2.21875 48.953125 2.21875 Z M 59.1875 -21.140625 C 67.195312 -21.140625 73.613281 -23.066406 78.4375 -26.921875 C 83.257812 -30.785156 85.671875 -35.832031 85.671875 -42.0625 L 85.671875 -48.0625 C 82.703125 -49.394531 79.398438 -50.46875 75.765625 -51.28125 C 72.128906 -52.101562 68.238281 -52.515625 64.09375 -52.515625 C 56.820312 -52.515625 51.109375 -51.101562 46.953125 -48.28125 C 42.796875 -45.46875 40.71875 -41.390625 40.71875 -36.046875 L 40.71875 -35.609375 C 40.71875 -31.003906 42.421875 -27.441406 45.828125 -24.921875 C 49.242188 -22.398438 53.695312 -21.140625 59.1875 -21.140625 Z M 59.1875 -21.140625 "/></g></g></g><g fill="#5addbd" fill-opacity="1"><g transform="translate(517.803295, 322.80467)"><g><path d="M 16.6875 -162.453125 L 50.515625 -162.453125 L 50.515625 0 L 16.6875 0 Z M 16.6875 -162.453125 "/></g></g></g><g fill="#5addbd" fill-opacity="1"><g transform="translate(573.878218, 322.80467)"><g><path d="M 71.65625 2.671875 C 62.75 2.671875 54.472656 1.1875 46.828125 -1.78125 C 39.191406 -4.75 32.59375 -8.976562 27.03125 -14.46875 C 21.46875 -19.957031 17.128906 -26.445312 14.015625 -33.9375 C 10.898438 -41.425781 9.34375 -49.769531 9.34375 -58.96875 L 9.34375 -59.421875 C 9.34375 -67.867188 10.789062 -75.875 13.6875 -83.4375 C 16.582031 -91.007812 20.625 -97.613281 25.8125 -103.25 C 31.007812 -108.882812 37.203125 -113.332031 44.390625 -116.59375 C 51.585938 -119.863281 59.5625 -121.5 68.3125 -121.5 C 78.257812 -121.5 86.863281 -119.71875 94.125 -116.15625 C 101.394531 -112.601562 107.441406 -107.820312 112.265625 -101.8125 C 117.085938 -95.800781 120.644531 -88.898438 122.9375 -81.109375 C 125.238281 -73.328125 126.390625 -65.207031 126.390625 -56.75 C 126.390625 -55.414062 126.351562 -54.003906 126.28125 -52.515625 C 126.207031 -51.035156 126.097656 -49.476562 125.953125 -47.84375 L 42.953125 -47.84375 C 44.578125 -40.125 47.945312 -34.300781 53.0625 -30.375 C 58.1875 -26.445312 64.53125 -24.484375 72.09375 -24.484375 C 77.738281 -24.484375 82.785156 -25.445312 87.234375 -27.375 C 91.679688 -29.300781 96.28125 -32.414062 101.03125 -36.71875 L 120.390625 -19.578125 C 114.753906 -12.609375 107.929688 -7.15625 99.921875 -3.21875 C 91.910156 0.707031 82.488281 2.671875 71.65625 2.671875 Z M 93.46875 -68.984375 C 92.425781 -76.546875 89.753906 -82.664062 85.453125 -87.34375 C 81.148438 -92.019531 75.4375 -94.359375 68.3125 -94.359375 C 61.195312 -94.359375 55.445312 -92.054688 51.0625 -87.453125 C 46.6875 -82.859375 43.832031 -76.703125 42.5 -68.984375 Z M 93.46875 -68.984375 "/></g></g></g><g fill="#5addbd" fill-opacity="1"><g transform="translate(699.157793, 322.80467)"><g><path d="M 56.96875 2.21875 C 48.507812 2.21875 39.863281 0.773438 31.03125 -2.109375 C 22.207031 -5.003906 13.789062 -9.566406 5.78125 -15.796875 L 20.25 -38.046875 C 26.78125 -33.304688 33.269531 -29.75 39.71875 -27.375 C 46.175781 -25 52.222656 -23.8125 57.859375 -23.8125 C 62.753906 -23.8125 66.347656 -24.625 68.640625 -26.25 C 70.941406 -27.882812 72.09375 -30.039062 72.09375 -32.71875 L 72.09375 -33.15625 C 72.09375 -34.9375 71.425781 -36.492188 70.09375 -37.828125 C 68.757812 -39.160156 66.941406 -40.304688 64.640625 -41.265625 C 62.347656 -42.234375 59.71875 -43.160156 56.75 -44.046875 C 53.78125 -44.941406 50.664062 -45.910156 47.40625 -46.953125 C 43.25 -48.140625 39.054688 -49.585938 34.828125 -51.296875 C 30.597656 -53.003906 26.773438 -55.226562 23.359375 -57.96875 C 19.953125 -60.71875 17.171875 -64.09375 15.015625 -68.09375 C 12.867188 -72.101562 11.796875 -77 11.796875 -82.78125 L 11.796875 -83.234375 C 11.796875 -89.304688 12.941406 -94.679688 15.234375 -99.359375 C 17.535156 -104.035156 20.648438 -108.003906 24.578125 -111.265625 C 28.515625 -114.523438 33.113281 -116.972656 38.375 -118.609375 C 43.644531 -120.242188 49.320312 -121.0625 55.40625 -121.0625 C 62.976562 -121.0625 70.65625 -119.835938 78.4375 -117.390625 C 86.226562 -114.941406 93.390625 -111.566406 99.921875 -107.265625 L 87.015625 -83.890625 C 81.078125 -87.304688 75.289062 -90.015625 69.65625 -92.015625 C 64.019531 -94.015625 59.050781 -95.015625 54.75 -95.015625 C 50.59375 -95.015625 47.472656 -94.234375 45.390625 -92.671875 C 43.316406 -91.117188 42.28125 -89.15625 42.28125 -86.78125 L 42.28125 -86.34375 C 42.28125 -84.707031 42.945312 -83.257812 44.28125 -82 C 45.613281 -80.738281 47.394531 -79.550781 49.625 -78.4375 C 51.851562 -77.320312 54.410156 -76.242188 57.296875 -75.203125 C 60.191406 -74.171875 63.269531 -73.132812 66.53125 -72.09375 C 70.6875 -70.757812 74.914062 -69.164062 79.21875 -67.3125 C 83.519531 -65.457031 87.375 -63.191406 90.78125 -60.515625 C 94.195312 -57.847656 97.019531 -54.585938 99.25 -50.734375 C 101.476562 -46.878906 102.59375 -42.207031 102.59375 -36.71875 L 102.59375 -36.265625 C 102.59375 -29.597656 101.441406 -23.851562 99.140625 -19.03125 C 96.835938 -14.207031 93.609375 -10.238281 89.453125 -7.125 C 85.304688 -4.007812 80.445312 -1.671875 74.875 -0.109375 C 69.3125 1.441406 63.34375 2.21875 56.96875 2.21875 Z M 56.96875 2.21875 "/></g></g></g></svg>