<svg xmlns="http://www.w3.org/2000/svg" xmlns:xlink="http://www.w3.org/1999/xlink" width="1200" zoomAndPan="magnify" viewBox="0 0 900 899.99999" height="1200" preserveAspectRatio="xMidYMid meet" version="1.0"><path fill="#fad209" d="M 815.34375 454.144531 L 571.394531 207.707031 C 524.277344 160.105469 427.507812 248.15625 484.269531 303.546875 L 638.605469 454.144531 L 479.292969 602.257812 C 430.78125 647.359375 520.640625 739.914062 568.90625 693.117188 Z M 815.34375 454.144531 " fill-opacity="1" fill-rule="nonzero"/><path fill="#5addbd" d="M 621.394531 454.144531 L 377.449219 207.707031 C 330.328125 160.105469 233.5625 248.15625 290.320312 303.546875 L 444.65625 454.144531 L 285.34375 602.257812 C 236.832031 647.359375 326.695312 739.914062 374.957031 693.117188 Z M 621.394531 454.144531 " fill-opacity="1" fill-rule="nonzero"/><path fill="#196d9c" d="M 427.449219 454.144531 L 183.5 207.707031 C 136.382812 160.105469 39.613281 248.15625 96.375 303.546875 L 250.710938 454.144531 L 91.398438 602.257812 C 42.886719 647.359375 132.746094 739.914062 181.011719 693.117188 Z M 427.449219 454.144531 " fill-opacity="1" fill-rule="nonzero"/></svg>