<svg xmlns="http://www.w3.org/2000/svg" xmlns:xlink="http://www.w3.org/1999/xlink" width="1500" zoomAndPan="magnify" viewBox="0 0 1125 337.499995" height="450" preserveAspectRatio="xMidYMid meet" version="1.0"><defs><g/><clipPath id="5646fe4f9d"><path d="M 59 128 L 148.996094 128 L 148.996094 259 L 59 259 Z M 59 128 " clip-rule="nonzero"/></clipPath><clipPath id="6d92168be6"><path d="M 10 128 L 99.777344 128 L 99.777344 259 L 10 259 Z M 10 128 " clip-rule="nonzero"/></clipPath></defs><g fill="#196d9c" fill-opacity="1"><g transform="translate(193.279809, 233.298559)"><g><path d="M 12.03125 -94.875 L 38.9375 -94.875 L 38.9375 -81.25 C 42.25 -85.738281 46.234375 -89.425781 50.890625 -92.3125 C 55.554688 -95.207031 61.425781 -96.65625 68.5 -96.65625 C 74.050781 -96.65625 79.421875 -95.59375 84.609375 -93.46875 C 89.804688 -91.34375 94.410156 -88.179688 98.421875 -83.984375 C 102.429688 -79.796875 105.644531 -74.664062 108.0625 -68.59375 C 110.488281 -62.519531 111.703125 -55.523438 111.703125 -47.609375 L 111.703125 -47.265625 C 111.703125 -39.359375 110.488281 -32.363281 108.0625 -26.28125 C 105.644531 -20.207031 102.457031 -15.078125 98.5 -10.890625 C 94.550781 -6.703125 89.976562 -3.546875 84.78125 -1.421875 C 79.59375 0.703125 74.164062 1.765625 68.5 1.765625 C 61.300781 1.765625 55.367188 0.347656 50.703125 -2.484375 C 46.046875 -5.316406 42.125 -8.617188 38.9375 -12.390625 L 38.9375 28.328125 L 12.03125 28.328125 Z M 61.59375 -21.0625 C 64.78125 -21.0625 67.757812 -21.679688 70.53125 -22.921875 C 73.3125 -24.160156 75.765625 -25.929688 77.890625 -28.234375 C 80.015625 -30.535156 81.695312 -33.28125 82.9375 -36.46875 C 84.175781 -39.65625 84.796875 -43.253906 84.796875 -47.265625 L 84.796875 -47.609375 C 84.796875 -51.503906 84.175781 -55.070312 82.9375 -58.3125 C 81.695312 -61.5625 80.015625 -64.335938 77.890625 -66.640625 C 75.765625 -68.941406 73.3125 -70.710938 70.53125 -71.953125 C 67.757812 -73.191406 64.78125 -73.8125 61.59375 -73.8125 C 58.414062 -73.8125 55.4375 -73.191406 52.65625 -71.953125 C 49.882812 -70.710938 47.46875 -68.941406 45.40625 -66.640625 C 43.34375 -64.335938 41.691406 -61.5625 40.453125 -58.3125 C 39.210938 -55.070312 38.59375 -51.503906 38.59375 -47.609375 L 38.59375 -47.265625 C 38.59375 -43.367188 39.210938 -39.796875 40.453125 -36.546875 C 41.691406 -33.304688 43.34375 -30.535156 45.40625 -28.234375 C 47.46875 -25.929688 49.882812 -24.160156 52.65625 -22.921875 C 55.4375 -21.679688 58.414062 -21.0625 61.59375 -21.0625 Z M 61.59375 -21.0625 "/></g></g></g><g fill="#196d9c" fill-opacity="1"><g transform="translate(303.905136, 233.298559)"><g><path d="M 58.59375 2.125 C 51.269531 2.125 44.484375 0.859375 38.234375 -1.671875 C 31.984375 -4.210938 26.582031 -7.695312 22.03125 -12.125 C 17.488281 -16.550781 13.921875 -21.742188 11.328125 -27.703125 C 8.734375 -33.660156 7.4375 -40.0625 7.4375 -46.90625 L 7.4375 -47.265625 C 7.4375 -54.109375 8.734375 -60.507812 11.328125 -66.46875 C 13.921875 -72.425781 17.519531 -77.644531 22.125 -82.125 C 26.726562 -86.613281 32.15625 -90.15625 38.40625 -92.75 C 44.664062 -95.351562 51.515625 -96.65625 58.953125 -96.65625 C 66.265625 -96.65625 73.046875 -95.382812 79.296875 -92.84375 C 85.554688 -90.300781 90.957031 -86.816406 95.5 -82.390625 C 100.039062 -77.972656 103.609375 -72.785156 106.203125 -66.828125 C 108.804688 -60.867188 110.109375 -54.460938 110.109375 -47.609375 L 110.109375 -47.265625 C 110.109375 -40.421875 108.804688 -34.019531 106.203125 -28.0625 C 103.609375 -22.101562 100.007812 -16.878906 95.40625 -12.390625 C 90.800781 -7.910156 85.375 -4.367188 79.125 -1.765625 C 72.875 0.828125 66.03125 2.125 58.59375 2.125 Z M 58.953125 -21.0625 C 62.835938 -21.0625 66.285156 -21.738281 69.296875 -23.09375 C 72.304688 -24.457031 74.875 -26.316406 77 -28.671875 C 79.125 -31.035156 80.742188 -33.78125 81.859375 -36.90625 C 82.984375 -40.03125 83.546875 -43.363281 83.546875 -46.90625 L 83.546875 -47.265625 C 83.546875 -50.804688 82.957031 -54.140625 81.78125 -57.265625 C 80.601562 -60.390625 78.890625 -63.160156 76.640625 -65.578125 C 74.398438 -68.003906 71.742188 -69.925781 68.671875 -71.34375 C 65.609375 -72.757812 62.25 -73.46875 58.59375 -73.46875 C 54.695312 -73.46875 51.242188 -72.785156 48.234375 -71.421875 C 45.222656 -70.066406 42.65625 -68.207031 40.53125 -65.84375 C 38.40625 -63.488281 36.78125 -60.742188 35.65625 -57.609375 C 34.539062 -54.484375 33.984375 -51.148438 33.984375 -47.609375 L 33.984375 -47.265625 C 33.984375 -43.722656 34.570312 -40.390625 35.75 -37.265625 C 36.9375 -34.140625 38.648438 -31.363281 40.890625 -28.9375 C 43.128906 -26.519531 45.753906 -24.601562 48.765625 -23.1875 C 51.773438 -21.769531 55.171875 -21.0625 58.953125 -21.0625 Z M 58.953125 -21.0625 "/></g></g></g><g fill="#196d9c" fill-opacity="1"><g transform="translate(412.583449, 233.298559)"><g><path d="M 4.25 -94.875 L 31.515625 -94.875 L 46.734375 -37.34375 L 64.609375 -95.234375 L 87.796875 -95.234375 L 105.859375 -37.171875 L 121.4375 -94.875 L 148.15625 -94.875 L 118.59375 0.703125 L 94.34375 0.703125 L 76.109375 -57.53125 L 57.53125 0.703125 L 33.453125 0.703125 Z M 4.25 -94.875 "/></g></g></g><g fill="#196d9c" fill-opacity="1"><g transform="translate(556.131193, 233.298559)"><g><path d="M 57 2.125 C 49.914062 2.125 43.332031 0.945312 37.25 -1.40625 C 31.175781 -3.769531 25.925781 -7.132812 21.5 -11.5 C 17.082031 -15.875 13.632812 -21.039062 11.15625 -27 C 8.675781 -32.957031 7.4375 -39.59375 7.4375 -46.90625 L 7.4375 -47.265625 C 7.4375 -53.992188 8.585938 -60.363281 10.890625 -66.375 C 13.191406 -72.394531 16.40625 -77.644531 20.53125 -82.125 C 24.664062 -86.613281 29.59375 -90.15625 35.3125 -92.75 C 41.039062 -95.351562 47.382812 -96.65625 54.34375 -96.65625 C 62.25 -96.65625 69.09375 -95.238281 74.875 -92.40625 C 80.65625 -89.570312 85.460938 -85.765625 89.296875 -80.984375 C 93.140625 -76.203125 95.972656 -70.710938 97.796875 -64.515625 C 99.628906 -58.328125 100.546875 -51.867188 100.546875 -45.140625 C 100.546875 -44.078125 100.515625 -42.953125 100.453125 -41.765625 C 100.398438 -40.585938 100.3125 -39.351562 100.1875 -38.0625 L 34.15625 -38.0625 C 35.457031 -31.925781 38.144531 -27.289062 42.21875 -24.15625 C 46.289062 -21.03125 51.335938 -19.46875 57.359375 -19.46875 C 61.835938 -19.46875 65.847656 -20.234375 69.390625 -21.765625 C 72.929688 -23.304688 76.585938 -25.785156 80.359375 -29.203125 L 95.765625 -15.578125 C 91.273438 -10.023438 85.84375 -5.6875 79.46875 -2.5625 C 73.101562 0.5625 65.613281 2.125 57 2.125 Z M 74.34375 -54.875 C 73.519531 -60.894531 71.394531 -65.757812 67.96875 -69.46875 C 64.550781 -73.1875 60.007812 -75.046875 54.34375 -75.046875 C 48.675781 -75.046875 44.101562 -73.21875 40.625 -69.5625 C 37.144531 -65.90625 34.875 -61.007812 33.8125 -54.875 Z M 74.34375 -54.875 "/></g></g></g><g fill="#196d9c" fill-opacity="1"><g transform="translate(655.782389, 233.298559)"><g><path d="M 12.03125 -94.875 L 38.9375 -94.875 L 38.9375 -75.765625 C 41.65625 -82.253906 45.375 -87.445312 50.09375 -91.34375 C 54.8125 -95.238281 61.1875 -97.007812 69.21875 -96.65625 L 69.21875 -68.5 L 67.796875 -68.5 C 58.828125 -68.5 51.773438 -65.785156 46.640625 -60.359375 C 41.503906 -54.929688 38.9375 -46.492188 38.9375 -35.046875 L 38.9375 0 L 12.03125 0 Z M 12.03125 -94.875 "/></g></g></g><g fill="#5addbd" fill-opacity="1"><g transform="translate(720.92806, 233.298559)"><g><path d="M 45.3125 1.765625 C 38.582031 1.765625 31.707031 0.613281 24.6875 -1.6875 C 17.664062 -3.988281 10.972656 -7.613281 4.609375 -12.5625 L 16.109375 -30.265625 C 21.296875 -26.492188 26.457031 -23.660156 31.59375 -21.765625 C 36.726562 -19.878906 41.539062 -18.9375 46.03125 -18.9375 C 49.914062 -18.9375 52.773438 -19.582031 54.609375 -20.875 C 56.441406 -22.175781 57.359375 -23.890625 57.359375 -26.015625 L 57.359375 -26.375 C 57.359375 -27.789062 56.828125 -29.03125 55.765625 -30.09375 C 54.703125 -31.15625 53.253906 -32.066406 51.421875 -32.828125 C 49.585938 -33.597656 47.488281 -34.335938 45.125 -35.046875 C 42.769531 -35.753906 40.296875 -36.519531 37.703125 -37.34375 C 34.398438 -38.289062 31.066406 -39.441406 27.703125 -40.796875 C 24.335938 -42.160156 21.296875 -43.929688 18.578125 -46.109375 C 15.867188 -48.296875 13.65625 -50.984375 11.9375 -54.171875 C 10.226562 -57.359375 9.375 -61.25 9.375 -65.84375 L 9.375 -66.203125 C 9.375 -71.046875 10.289062 -75.320312 12.125 -79.03125 C 13.957031 -82.75 16.4375 -85.90625 19.5625 -88.5 C 22.6875 -91.101562 26.34375 -93.050781 30.53125 -94.34375 C 34.71875 -95.644531 39.234375 -96.296875 44.078125 -96.296875 C 50.097656 -96.296875 56.203125 -95.320312 62.390625 -93.375 C 68.585938 -91.425781 74.285156 -88.742188 79.484375 -85.328125 L 69.21875 -66.734375 C 64.488281 -69.453125 59.878906 -71.601562 55.390625 -73.1875 C 50.910156 -74.78125 46.960938 -75.578125 43.546875 -75.578125 C 40.242188 -75.578125 37.765625 -74.957031 36.109375 -73.71875 C 34.460938 -72.488281 33.640625 -70.925781 33.640625 -69.03125 L 33.640625 -68.6875 C 33.640625 -67.382812 34.164062 -66.226562 35.21875 -65.21875 C 36.28125 -64.21875 37.695312 -63.273438 39.46875 -62.390625 C 41.238281 -61.515625 43.273438 -60.660156 45.578125 -59.828125 C 47.878906 -59.003906 50.328125 -58.179688 52.921875 -57.359375 C 56.234375 -56.296875 59.597656 -55.023438 63.015625 -53.546875 C 66.441406 -52.066406 69.507812 -50.265625 72.21875 -48.140625 C 74.9375 -46.023438 77.179688 -43.429688 78.953125 -40.359375 C 80.722656 -37.285156 81.609375 -33.566406 81.609375 -29.203125 L 81.609375 -28.859375 C 81.609375 -23.546875 80.691406 -18.96875 78.859375 -15.125 C 77.023438 -11.289062 74.457031 -8.132812 71.15625 -5.65625 C 67.851562 -3.1875 63.988281 -1.332031 59.5625 -0.09375 C 55.132812 1.144531 50.382812 1.765625 45.3125 1.765625 Z M 45.3125 1.765625 "/></g></g></g><g fill="#5addbd" fill-opacity="1"><g transform="translate(800.931997, 233.298559)"><g><path d="M 38.9375 1.765625 C 34.457031 1.765625 30.238281 1.144531 26.28125 -0.09375 C 22.332031 -1.332031 18.878906 -3.1875 15.921875 -5.65625 C 12.972656 -8.132812 10.644531 -11.175781 8.9375 -14.78125 C 7.226562 -18.382812 6.375 -22.546875 6.375 -27.265625 L 6.375 -27.609375 C 6.375 -32.804688 7.316406 -37.289062 9.203125 -41.0625 C 11.085938 -44.84375 13.710938 -47.972656 17.078125 -50.453125 C 20.441406 -52.929688 24.453125 -54.789062 29.109375 -56.03125 C 33.773438 -57.269531 38.941406 -57.890625 44.609375 -57.890625 C 49.441406 -57.890625 53.65625 -57.535156 57.25 -56.828125 C 60.851562 -56.117188 64.367188 -55.171875 67.796875 -53.984375 L 67.796875 -55.578125 C 67.796875 -61.242188 66.082031 -65.550781 62.65625 -68.5 C 59.238281 -71.457031 54.164062 -72.9375 47.4375 -72.9375 C 42.25 -72.9375 37.675781 -72.492188 33.71875 -71.609375 C 29.769531 -70.722656 25.609375 -69.453125 21.234375 -67.796875 L 14.515625 -88.328125 C 19.703125 -90.566406 25.128906 -92.394531 30.796875 -93.8125 C 36.460938 -95.226562 43.304688 -95.9375 51.328125 -95.9375 C 58.765625 -95.9375 65.109375 -95.019531 70.359375 -93.1875 C 75.609375 -91.363281 79.945312 -88.742188 83.375 -85.328125 C 86.914062 -81.785156 89.507812 -77.445312 91.15625 -72.3125 C 92.8125 -67.175781 93.640625 -61.421875 93.640625 -55.046875 L 93.640625 0 L 67.625 0 L 67.625 -10.265625 C 64.3125 -6.609375 60.351562 -3.6875 55.75 -1.5 C 51.15625 0.675781 45.550781 1.765625 38.9375 1.765625 Z M 47.09375 -16.8125 C 53.457031 -16.8125 58.554688 -18.34375 62.390625 -21.40625 C 66.234375 -24.476562 68.15625 -28.492188 68.15625 -33.453125 L 68.15625 -38.234375 C 65.789062 -39.296875 63.160156 -40.148438 60.265625 -40.796875 C 57.378906 -41.453125 54.285156 -41.78125 50.984375 -41.78125 C 45.203125 -41.78125 40.65625 -40.65625 37.34375 -38.40625 C 34.039062 -36.164062 32.390625 -32.921875 32.390625 -28.671875 L 32.390625 -28.328125 C 32.390625 -24.660156 33.742188 -21.820312 36.453125 -19.8125 C 39.171875 -17.8125 42.71875 -16.8125 47.09375 -16.8125 Z M 47.09375 -16.8125 "/></g></g></g><g fill="#5addbd" fill-opacity="1"><g transform="translate(896.866148, 233.298559)"><g><path d="M 13.28125 -129.21875 L 40.1875 -129.21875 L 40.1875 0 L 13.28125 0 Z M 13.28125 -129.21875 "/></g></g></g><g fill="#5addbd" fill-opacity="1"><g transform="translate(941.469661, 233.298559)"><g><path d="M 57 2.125 C 49.914062 2.125 43.332031 0.945312 37.25 -1.40625 C 31.175781 -3.769531 25.925781 -7.132812 21.5 -11.5 C 17.082031 -15.875 13.632812 -21.039062 11.15625 -27 C 8.675781 -32.957031 7.4375 -39.59375 7.4375 -46.90625 L 7.4375 -47.265625 C 7.4375 -53.992188 8.585938 -60.363281 10.890625 -66.375 C 13.191406 -72.394531 16.40625 -77.644531 20.53125 -82.125 C 24.664062 -86.613281 29.59375 -90.15625 35.3125 -92.75 C 41.039062 -95.351562 47.382812 -96.65625 54.34375 -96.65625 C 62.25 -96.65625 69.09375 -95.238281 74.875 -92.40625 C 80.65625 -89.570312 85.460938 -85.765625 89.296875 -80.984375 C 93.140625 -76.203125 95.972656 -70.710938 97.796875 -64.515625 C 99.628906 -58.328125 100.546875 -51.867188 100.546875 -45.140625 C 100.546875 -44.078125 100.515625 -42.953125 100.453125 -41.765625 C 100.398438 -40.585938 100.3125 -39.351562 100.1875 -38.0625 L 34.15625 -38.0625 C 35.457031 -31.925781 38.144531 -27.289062 42.21875 -24.15625 C 46.289062 -21.03125 51.335938 -19.46875 57.359375 -19.46875 C 61.835938 -19.46875 65.847656 -20.234375 69.390625 -21.765625 C 72.929688 -23.304688 76.585938 -25.785156 80.359375 -29.203125 L 95.765625 -15.578125 C 91.273438 -10.023438 85.84375 -5.6875 79.46875 -2.5625 C 73.101562 0.5625 65.613281 2.125 57 2.125 Z M 74.34375 -54.875 C 73.519531 -60.894531 71.394531 -65.757812 67.96875 -69.46875 C 64.550781 -73.1875 60.007812 -75.046875 54.34375 -75.046875 C 48.675781 -75.046875 44.101562 -73.21875 40.625 -69.5625 C 37.144531 -65.90625 34.875 -61.007812 33.8125 -54.875 Z M 74.34375 -54.875 "/></g></g></g><g fill="#5addbd" fill-opacity="1"><g transform="translate(1041.120858, 233.298559)"><g><path d="M 45.3125 1.765625 C 38.582031 1.765625 31.707031 0.613281 24.6875 -1.6875 C 17.664062 -3.988281 10.972656 -7.613281 4.609375 -12.5625 L 16.109375 -30.265625 C 21.296875 -26.492188 26.457031 -23.660156 31.59375 -21.765625 C 36.726562 -19.878906 41.539062 -18.9375 46.03125 -18.9375 C 49.914062 -18.9375 52.773438 -19.582031 54.609375 -20.875 C 56.441406 -22.175781 57.359375 -23.890625 57.359375 -26.015625 L 57.359375 -26.375 C 57.359375 -27.789062 56.828125 -29.03125 55.765625 -30.09375 C 54.703125 -31.15625 53.253906 -32.066406 51.421875 -32.828125 C 49.585938 -33.597656 47.488281 -34.335938 45.125 -35.046875 C 42.769531 -35.753906 40.296875 -36.519531 37.703125 -37.34375 C 34.398438 -38.289062 31.066406 -39.441406 27.703125 -40.796875 C 24.335938 -42.160156 21.296875 -43.929688 18.578125 -46.109375 C 15.867188 -48.296875 13.65625 -50.984375 11.9375 -54.171875 C 10.226562 -57.359375 9.375 -61.25 9.375 -65.84375 L 9.375 -66.203125 C 9.375 -71.046875 10.289062 -75.320312 12.125 -79.03125 C 13.957031 -82.75 16.4375 -85.90625 19.5625 -88.5 C 22.6875 -91.101562 26.34375 -93.050781 30.53125 -94.34375 C 34.71875 -95.644531 39.234375 -96.296875 44.078125 -96.296875 C 50.097656 -96.296875 56.203125 -95.320312 62.390625 -93.375 C 68.585938 -91.425781 74.285156 -88.742188 79.484375 -85.328125 L 69.21875 -66.734375 C 64.488281 -69.453125 59.878906 -71.601562 55.390625 -73.1875 C 50.910156 -74.78125 46.960938 -75.578125 43.546875 -75.578125 C 40.242188 -75.578125 37.765625 -74.957031 36.109375 -73.71875 C 34.460938 -72.488281 33.640625 -70.925781 33.640625 -69.03125 L 33.640625 -68.6875 C 33.640625 -67.382812 34.164062 -66.226562 35.21875 -65.21875 C 36.28125 -64.21875 37.695312 -63.273438 39.46875 -62.390625 C 41.238281 -61.515625 43.273438 -60.660156 45.578125 -59.828125 C 47.878906 -59.003906 50.328125 -58.179688 52.921875 -57.359375 C 56.234375 -56.296875 59.597656 -55.023438 63.015625 -53.546875 C 66.441406 -52.066406 69.507812 -50.265625 72.21875 -48.140625 C 74.9375 -46.023438 77.179688 -43.429688 78.953125 -40.359375 C 80.722656 -37.285156 81.609375 -33.566406 81.609375 -29.203125 L 81.609375 -28.859375 C 81.609375 -23.546875 80.691406 -18.96875 78.859375 -15.125 C 77.023438 -11.289062 74.457031 -8.132812 71.15625 -5.65625 C 67.851562 -3.1875 63.988281 -1.332031 59.5625 -0.09375 C 55.132812 1.144531 50.382812 1.765625 45.3125 1.765625 Z M 45.3125 1.765625 "/></g></g></g><path fill="#fad209" d="M 197.691406 194.859375 L 135.785156 132.320312 C 123.828125 120.242188 99.269531 142.585938 113.675781 156.644531 L 152.839844 194.859375 L 112.410156 232.445312 C 100.101562 243.890625 122.90625 267.382812 135.152344 255.503906 Z M 197.691406 194.859375 " fill-opacity="1" fill-rule="nonzero"/><g clip-path="url(#5646fe4f9d)"><path fill="#5addbd" d="M 148.472656 194.859375 L 86.566406 132.320312 C 74.609375 120.242188 50.050781 142.585938 64.457031 156.644531 L 103.621094 194.859375 L 63.195312 232.445312 C 50.882812 243.890625 73.6875 267.382812 85.933594 255.503906 Z M 148.472656 194.859375 " fill-opacity="1" fill-rule="nonzero"/></g><g clip-path="url(#6d92168be6)"><path fill="#196d9c" d="M 99.253906 194.859375 L 37.347656 132.320312 C 25.390625 120.242188 0.835938 142.585938 15.238281 156.644531 L 54.40625 194.859375 L 13.976562 232.445312 C 1.664062 243.890625 24.46875 267.382812 36.714844 255.503906 Z M 99.253906 194.859375 " fill-opacity="1" fill-rule="nonzero"/></g></svg>